<svg width="86" height="86" viewBox="0 0 86 86" fill="none" xmlns="http://www.w3.org/2000/svg">
<path d="M45.0833 43C45.0833 41.8494 46.016 40.9167 47.1666 40.9167H57.5833C58.7338 40.9167 59.6666 41.8494 59.6666 43V57.5833C59.6666 58.7339 58.7338 59.6667 57.5833 59.6667H47.1666C46.016 59.6667 45.0833 58.7339 45.0833 57.5833V43Z" stroke="#0A2973" stroke-width="3" stroke-linecap="round"/>
<path d="M26.3333 28.4167C26.3333 27.2661 27.266 26.3333 28.4166 26.3333H36.7499C37.9005 26.3333 38.8333 27.2661 38.8333 28.4167V43C38.8333 44.1506 37.9005 45.0833 36.7499 45.0833H28.4166C27.266 45.0833 26.3333 44.1506 26.3333 43V28.4167Z" stroke="#0A2973" stroke-width="3" stroke-linecap="round"/>
<path d="M26.3333 53.4167C26.3333 52.2661 27.266 51.3333 28.4166 51.3333H36.7499C37.9005 51.3333 38.8333 52.2661 38.8333 53.4167V57.5833C38.8333 58.7339 37.9005 59.6667 36.7499 59.6667H28.4166C27.266 59.6667 26.3333 58.7339 26.3333 57.5833V53.4167Z" stroke="#0A2973" stroke-width="3" stroke-linecap="round"/>
<path d="M45.0833 28.4167C45.0833 27.2661 46.016 26.3333 47.1666 26.3333H57.5833C58.7338 26.3333 59.6666 27.2661 59.6666 28.4167V32.5833C59.6666 33.7339 58.7338 34.6667 57.5833 34.6667H47.1666C46.016 34.6667 45.0833 33.7339 45.0833 32.5833V28.4167Z" stroke="#0A2973" stroke-width="3" stroke-linecap="round"/>
</svg>
