<svg width="41" height="41" viewBox="0 0 41 41" fill="none" xmlns="http://www.w3.org/2000/svg">
<circle cx="20.5" cy="20.5" r="20.5" fill="#EDEDED"/>
<path d="M16.9452 23.2418C16.5554 23.633 16.5566 24.2662 16.9478 24.656C17.339 25.0458 17.9722 25.0447 18.362 24.6534L16.9452 23.2418ZM25.6427 17.3462C26.0326 16.955 26.0314 16.3218 25.6402 15.932C25.2489 15.5422 24.6158 15.5433 24.226 15.9346L25.6427 17.3462ZM18.3462 15.9452C17.955 15.5554 17.3218 15.5566 16.932 15.9478C16.5422 16.339 16.5433 16.9722 16.9345 17.362L18.3462 15.9452ZM24.2418 24.6428C24.633 25.0326 25.2662 25.0314 25.656 24.6402C26.0458 24.2489 26.0447 23.6158 25.6534 23.226L24.2418 24.6428ZM18.362 24.6534L22.0024 20.9998L20.5856 19.5882L16.9452 23.2418L18.362 24.6534ZM22.0024 20.9998L25.6427 17.3462L24.226 15.9346L20.5856 19.5882L22.0024 20.9998ZM16.9345 17.362L20.5882 21.0024L21.9998 19.5856L18.3462 15.9452L16.9345 17.362ZM20.5882 21.0024L24.2418 24.6428L25.6534 23.226L21.9998 19.5856L20.5882 21.0024Z" fill="#292929"/>
</svg>
