<svg width="86" height="86" viewBox="0 0 86 86" fill="none" xmlns="http://www.w3.org/2000/svg">
<path d="M47.1667 29.0206H45.6667C45.6667 29.6842 46.1028 30.269 46.7388 30.4583L47.1667 29.0206ZM49.9379 30.1695L49.2233 31.4883C49.8069 31.8046 50.5291 31.6996 50.9986 31.2302L49.9379 30.1695ZM52.6049 27.5025L53.6655 28.5632L53.6655 28.5632L52.6049 27.5025ZM54.0191 27.5025L55.0798 26.4419L55.0798 26.4419L54.0191 27.5025ZM58.4974 31.9809L59.5581 30.9202L59.5581 30.9202L58.4974 31.9809ZM58.4974 33.3951L57.4368 32.3344L57.4368 32.3344L58.4974 33.3951ZM55.8305 36.062L54.7698 35.0014C54.3004 35.4708 54.1954 36.193 54.5116 36.7767L55.8305 36.062ZM56.9795 38.8333L55.5418 39.2612C55.7311 39.8973 56.3158 40.3333 56.9795 40.3333V38.8333ZM56.9794 47.1667V45.6667C56.3158 45.6667 55.7311 46.1027 55.5418 46.7388L56.9794 47.1667ZM55.8305 49.9379L54.5117 49.2233C54.1954 49.807 54.3004 50.5292 54.7698 50.9986L55.8305 49.9379ZM58.4974 52.6049L57.4368 53.6656L57.4368 53.6656L58.4974 52.6049ZM58.4974 54.0191L57.4368 52.9585L57.4368 52.9585L58.4974 54.0191ZM54.0191 58.4975L55.0798 59.5581L55.0798 59.5581L54.0191 58.4975ZM52.6049 58.4975L53.6655 57.4368L53.6655 57.4368L52.6049 58.4975ZM49.9379 55.8305L50.9986 54.7698C50.5291 54.3004 49.807 54.1954 49.2233 54.5117L49.9379 55.8305ZM47.1667 56.9794L46.7388 55.5417C46.1028 55.731 45.6667 56.3158 45.6667 56.9794H47.1667ZM38.8334 56.9794H40.3334C40.3334 56.3158 39.8973 55.731 39.2612 55.5417L38.8334 56.9794ZM36.0621 55.8304L36.7767 54.5116C36.193 54.1953 35.4709 54.3003 35.0014 54.7698L36.0621 55.8304ZM33.3951 58.4974L34.4558 59.558L34.4558 59.558L33.3951 58.4974ZM31.9809 58.4974L30.9203 59.558L30.9203 59.558L31.9809 58.4974ZM27.5026 54.019L28.5632 52.9584L28.5632 52.9584L27.5026 54.019ZM27.5026 52.6048L26.4419 51.5442L26.4419 51.5442L27.5026 52.6048ZM30.1695 49.9379L31.2302 50.9985C31.6996 50.5291 31.8047 49.8069 31.4884 49.2232L30.1695 49.9379ZM29.0206 47.1667L30.4583 46.7388C30.269 46.1027 29.6842 45.6667 29.0206 45.6667V47.1667ZM29.0206 38.8333V40.3333C29.6842 40.3333 30.269 39.8973 30.4583 39.2612L29.0206 38.8333ZM30.1695 36.0621L31.4884 36.7768C31.8047 36.1931 31.6996 35.4709 31.2302 35.0015L30.1695 36.0621ZM27.5026 33.3952L28.5633 32.3345L28.5633 32.3345L27.5026 33.3952ZM27.5026 31.981L28.5633 33.0416L28.5633 33.0416L27.5026 31.981ZM31.9809 27.5026L30.9203 26.442L30.9203 26.442L31.9809 27.5026ZM33.3952 27.5026L34.4558 26.442L34.4558 26.442L33.3952 27.5026ZM36.0621 30.1696L35.0014 31.2302C35.4709 31.6997 36.193 31.8047 36.7767 31.4884L36.0621 30.1696ZM38.8334 29.0206L39.2612 30.4583C39.8973 30.269 40.3334 29.6842 40.3334 29.0206H38.8334ZM39.8334 22.75C38.4527 22.75 37.3334 23.8693 37.3334 25.25H40.3334C40.3334 25.5261 40.1095 25.75 39.8334 25.75V22.75ZM46.1667 22.75H39.8334V25.75H46.1667V22.75ZM48.6667 25.25C48.6667 23.8693 47.5474 22.75 46.1667 22.75V25.75C45.8906 25.75 45.6667 25.5261 45.6667 25.25H48.6667ZM48.6667 29.0206V25.25H45.6667V29.0206H48.6667ZM50.6525 28.8507C49.6886 28.3284 48.6651 27.9015 47.5946 27.5829L46.7388 30.4583C47.608 30.717 48.4396 31.0637 49.2233 31.4883L50.6525 28.8507ZM51.5442 26.4419L48.8772 29.1089L50.9986 31.2302L53.6655 28.5632L51.5442 26.4419ZM55.0798 26.4419C54.1034 25.4656 52.5205 25.4656 51.5442 26.4419L53.6655 28.5632C53.4703 28.7585 53.1537 28.7584 52.9584 28.5632L55.0798 26.4419ZM59.5581 30.9202L55.0798 26.4419L52.9584 28.5632L57.4368 33.0415L59.5581 30.9202ZM59.5581 34.4557C60.5344 33.4794 60.5344 31.8965 59.5581 30.9202L57.4368 33.0415C57.2415 32.8463 57.2415 32.5297 57.4368 32.3344L59.5581 34.4557ZM56.8911 37.1227L59.5581 34.4557L57.4368 32.3344L54.7698 35.0014L56.8911 37.1227ZM58.4171 38.4055C58.0985 37.3349 57.6716 36.3113 57.1493 35.3474L54.5116 36.7767C54.9363 37.5604 55.2831 38.392 55.5418 39.2612L58.4171 38.4055ZM56.9795 40.3333H60.75V37.3333H56.9795V40.3333ZM60.75 40.3333C60.4739 40.3333 60.25 40.1095 60.25 39.8333H63.25C63.25 38.4526 62.1307 37.3333 60.75 37.3333V40.3333ZM60.25 39.8333V46.1667H63.25V39.8333H60.25ZM60.25 46.1667C60.25 45.8905 60.4739 45.6667 60.75 45.6667V48.6667C62.1307 48.6667 63.25 47.5474 63.25 46.1667H60.25ZM60.75 45.6667H56.9794V48.6667H60.75V45.6667ZM57.1493 50.6526C57.6716 49.6887 58.0985 48.6651 58.4171 47.5945L55.5418 46.7388C55.2831 47.608 54.9363 48.4396 54.5117 49.2233L57.1493 50.6526ZM59.5581 51.5442L56.8911 48.8773L54.7698 50.9986L57.4368 53.6656L59.5581 51.5442ZM59.5581 55.0798C60.5344 54.1035 60.5344 52.5206 59.5581 51.5442L57.4368 53.6656C57.2415 53.4703 57.2415 53.1537 57.4368 52.9585L59.5581 55.0798ZM55.0798 59.5581L59.5581 55.0798L57.4368 52.9585L52.9584 57.4368L55.0798 59.5581ZM51.5442 59.5581C52.5205 60.5344 54.1034 60.5344 55.0798 59.5581L52.9584 57.4368C53.1537 57.2415 53.4703 57.2415 53.6655 57.4368L51.5442 59.5581ZM48.8772 56.8911L51.5442 59.5581L53.6655 57.4368L50.9986 54.7698L48.8772 56.8911ZM47.5946 58.4171C48.6651 58.0985 49.6887 57.6716 50.6525 57.1493L49.2233 54.5117C48.4396 54.9363 47.608 55.283 46.7388 55.5417L47.5946 58.4171ZM48.6667 60.75V56.9794H45.6667V60.75H48.6667ZM46.1667 63.25C47.5474 63.25 48.6667 62.1307 48.6667 60.75H45.6667C45.6667 60.4739 45.8906 60.25 46.1667 60.25V63.25ZM39.8334 63.25H46.1667V60.25H39.8334V63.25ZM37.3334 60.75C37.3334 62.1307 38.4527 63.25 39.8334 63.25V60.25C40.1095 60.25 40.3334 60.4739 40.3334 60.75H37.3334ZM37.3334 56.9794V60.75H40.3334V56.9794H37.3334ZM35.3474 57.1493C36.3113 57.6716 37.335 58.0985 38.4055 58.4171L39.2612 55.5417C38.392 55.283 37.5604 54.9363 36.7767 54.5116L35.3474 57.1493ZM34.4558 59.558L37.1227 56.8911L35.0014 54.7698L32.3345 57.4367L34.4558 59.558ZM30.9203 59.558C31.8966 60.5343 33.4795 60.5343 34.4558 59.558L32.3345 57.4367C32.5297 57.2415 32.8463 57.2415 33.0416 57.4367L30.9203 59.558ZM26.4419 55.0797L30.9203 59.558L33.0416 57.4367L28.5632 52.9584L26.4419 55.0797ZM26.4419 51.5442C25.4656 52.5205 25.4656 54.1034 26.4419 55.0797L28.5632 52.9584C28.7585 53.1536 28.7585 53.4702 28.5632 53.6655L26.4419 51.5442ZM29.1089 48.8772L26.4419 51.5442L28.5632 53.6655L31.2302 50.9985L29.1089 48.8772ZM27.5829 47.5945C27.9015 48.665 28.3284 49.6886 28.8507 50.6525L31.4884 49.2232C31.0637 48.4396 30.717 47.608 30.4583 46.7388L27.5829 47.5945ZM29.0206 45.6667H25.25V48.6667H29.0206V45.6667ZM25.25 45.6667C25.5261 45.6667 25.75 45.8905 25.75 46.1667H22.75C22.75 47.5474 23.8693 48.6667 25.25 48.6667V45.6667ZM25.75 46.1667V39.8333H22.75V46.1667H25.75ZM25.75 39.8333C25.75 40.1095 25.5261 40.3333 25.25 40.3333V37.3333C23.8693 37.3333 22.75 38.4526 22.75 39.8333H25.75ZM25.25 40.3333H29.0206V37.3333H25.25V40.3333ZM28.8507 35.3475C28.3284 36.3114 27.9015 37.335 27.5829 38.4055L30.4583 39.2612C30.717 38.392 31.0637 37.5604 31.4884 36.7768L28.8507 35.3475ZM26.4419 34.4558L29.1089 37.1228L31.2302 35.0015L28.5633 32.3345L26.4419 34.4558ZM26.4419 30.9203C25.4656 31.8966 25.4656 33.4795 26.4419 34.4558L28.5633 32.3345C28.7585 32.5298 28.7585 32.8464 28.5633 33.0416L26.4419 30.9203ZM30.9203 26.442L26.4419 30.9203L28.5633 33.0416L33.0416 28.5633L30.9203 26.442ZM34.4558 26.442C33.4795 25.4656 31.8966 25.4656 30.9203 26.442L33.0416 28.5633C32.8463 28.7585 32.5298 28.7585 32.3345 28.5633L34.4558 26.442ZM37.1228 29.1089L34.4558 26.442L32.3345 28.5633L35.0014 31.2302L37.1228 29.1089ZM38.4055 27.5829C37.335 27.9015 36.3114 28.3284 35.3474 28.8507L36.7767 31.4884C37.5604 31.0637 38.392 30.717 39.2612 30.4583L38.4055 27.5829ZM37.3334 25.25V29.0206H40.3334V25.25H37.3334Z" fill="#0A2973"/>
<circle cx="43" cy="43" r="6.25" stroke="#0A2973" stroke-width="3" stroke-linecap="round" stroke-linejoin="round"/>
</svg>
