<svg width="86" height="86" viewBox="0 0 86 86" fill="none" xmlns="http://www.w3.org/2000/svg">
<path d="M36.1562 38.3958C36.1562 37.067 36.5503 35.768 37.2886 34.6631C38.0268 33.5582 39.0762 32.697 40.3038 32.1885C41.5315 31.68 42.8825 31.5469 44.1858 31.8062C45.4891 32.0654 46.6862 32.7053 47.6259 33.645C48.5655 34.5846 49.2054 35.7818 49.4647 37.0851C49.7239 38.3884 49.5908 39.7393 49.0823 40.967C48.5738 42.1947 47.7126 43.244 46.6077 43.9823C45.5028 44.7205 44.2038 45.1146 42.875 45.1146V47.3542M63.0312 42.875C63.0312 54.007 54.007 63.0312 42.875 63.0312C31.743 63.0312 22.7188 54.007 22.7188 42.875C22.7188 31.743 31.743 22.7188 42.875 22.7188C54.007 22.7188 63.0312 31.743 63.0312 42.875Z" stroke="#0A2973" stroke-width="3" stroke-linecap="round" stroke-linejoin="round"/>
<ellipse cx="42.8751" cy="54.0729" rx="2.23958" ry="2.23958" fill="#0A2973"/>
</svg>
