<svg width="64" height="64" fill="none" xmlns="http://www.w3.org/2000/svg"><path d="M35.8 18.82a.72.72 0 0 0-.9-.55c-.42.1-.82.85-.18 1.19a.729.729 0 0 0 1.08-.64ZM24 17.93c.06-.22-.47-2.53-.5-2.78-.03-.25-.35 0-.53.1a12.4 12.4 0 0 0 .24 2.75s.79.15.79-.07Zm-3.35 3.35A25.286 25.286 0 0 1 23 19.93c.22-.09.75 1.85.75 1.85.31-.076.611-.184.9-.32a8.101 8.101 0 0 0-.75-2.62 4.311 4.311 0 0 0-1.93.53 8.59 8.59 0 0 0-2 1.5l.12.78a2.7 2.7 0 0 0 .58-.37h-.02Zm15.19-7.19c.91.16 2.16.62 2.28.53.12-.09 0-.41-.06-.56-.06-.15-.47-.44-1.66-.69a12.29 12.29 0 0 0-2.37-.31c-.13 0 .19.78.28.87.09.09.69 0 1.55.16h-.02Zm4.78 5.09c.13 0-.06-.62-.15-.81a5.374 5.374 0 0 0-1.85-.47s0 .69.16.85a8.704 8.704 0 0 0 1.86.43h-.02Zm-1.56 1.19a8.165 8.165 0 0 0 1.84.44c.13 0-.06-.63-.15-.81a5.374 5.374 0 0 0-1.85-.47s.02.68.18.84h-.02ZM20.64 43.65c.141.346.261.7.36 1.06 0 .16-1.32.72-1.19 1.16a7.82 7.82 0 0 0 4 3.81 3.849 3.849 0 0 0 3.9-.68 16.93 16.93 0 0 0-.41-1.85l1.12-.47s.79 1.66.91 1.79c.12.13 1.72-.22 3.44-2.44a6.66 6.66 0 0 0 1.09-5.31c-.09-.29-2.09 0-2.09 0l-.72-1.21s1-1.16 1.06-1.25c.06-.09-.11-1.76-2.75-2.8a5.1 5.1 0 0 0-4.9.35c-.35.31.18 1.15.21 1.25.03.1-1 .62-1.09.56a8.683 8.683 0 0 1-.47-1.09c-.09-.16-1.65.25-3.34 2.72a4.52 4.52 0 0 0-.66 4.5c.03.15 1.53-.1 1.53-.1Zm0-3.62c.53-1 1.25-2.07 1.72-2.22 0 0 .66 1.06.85 1.09.915-.213 1.796-.55 2.62-1a5.942 5.942 0 0 0-.19-1.65 3.56 3.56 0 0 1 3.07 0c1.75.78 1.87 1.56 1.87 1.56s-1 1.37-.91 1.5c.09.13 1.5 2.41 1.5 2.41a12.38 12.38 0 0 1 1.82.12 5.39 5.39 0 0 1-1 3.22 5.82 5.82 0 0 1-2.13 2.09s-.78-1.5-1-1.5c-.22 0-2.59.75-2.59 1.1 0 .35.28 2.06.28 2.06a3.31 3.31 0 0 1-3.55-.88c-1.85-1.68-2.1-1.9-1.85-2 .25-.1 1.19-.75 1.19-1a15.851 15.851 0 0 0-.62-2.12c-.07-.1-1.85 0-1.88-.1a8.67 8.67 0 0 1 .8-2.71v.03Zm8.69 2.34a2.66 2.66 0 0 0-4-2.66c-.87.47-1.87 1.1-1.28 3.63.59 2.53 5.19 1.66 5.28-.97Zm-3.45-1.66a1.55 1.55 0 0 1 2.32 1.55c-.05 1.54-2.72 2.05-3.07.57-.35-1.48.24-1.83.75-2.12Zm24.78-7.12c-1.66-4.42-9-8.58-9-8.58L43 23.42s1.33-1.83-.5-6.79S37 10.3 37 10.3s0-7.3-.17-7.54c-.17-.24-4.08.16-4.21.33-.13.17.5 6 .5 6A8.66 8.66 0 0 0 32 8.92l-1.29-.12a13.39 13.39 0 0 0-.46-2.75c-.25-.34-3 .41-3.13.66.04.847.182 1.686.42 2.5 0 0-6.71 2.3-9.33 7.55a9.91 9.91 0 0 0 .58 9.75c-6.63 4.62-7.71 15.87-6.33 20.54S18.58 60.46 30 61.26c11.42.8 17-5.59 20-10.88 3-5.29 2.33-12.38.66-16.79Zm-5-3.22c.25.09 1.85 1.66 1.66 1.72-.19.06-4.87 1.19-8.28-1-3.41-2.19-4.41-4.78-4.25-5.88.477.039.949.122 1.41.25a7.18 7.18 0 0 0 4 4.13 11.55 11.55 0 0 0 5.47.78h-.01ZM33.79 19.71a1.35 1.35 0 0 1 .5-2.08 1.63 1.63 0 0 1 2.17 1.79c-.34 1.09-2.34.88-2.67.29ZM41.71 27c2.15 1.15 2.59 2.18 2.59 2.18a6 6 0 0 1-4.19-.9 5.37 5.37 0 0 1-2.34-2.66A11.77 11.77 0 0 1 41.71 27ZM34 3.84c.12-.12 1.75-.38 1.75-.09 0 .29.18 6.09 0 6-.487-.11-.968-.247-1.44-.41-.04-.13-.42-5.44-.31-5.5Zm-5.7 3.69c.16-.1 1.09-.5 1.16-.28.07.22.34 1.59.18 1.59h-1.09s-.41-1.22-.25-1.31Zm-7.51 8.64c2.67-3.91 6-5.5 10.87-5.41 4.87.09 7.63 2.7 8.63 5.54 1 2.84 1.5 6 1.25 6.21-.25.21-.88-.17-2.13-.71a26.598 26.598 0 0 0-2.7-1s1.95-1.71.29-3.5-4.63-.38-5 .87c-.37 1.25.83 2.59.83 2.59a14.93 14.93 0 0 0-7.54 1 32.643 32.643 0 0 0-5.38 2.66 9.499 9.499 0 0 1 .88-8.25ZM15.3 47c-.255.17-.479.383-.66.63a16.458 16.458 0 0 1-.78-4.09c0-1.72 0-3.54.35-4.07a.53.53 0 0 0 .46.47 1.84 1.84 0 0 0 1-.25 10.22 10.22 0 0 0-.43 4 19.78 19.78 0 0 0 .9 3.31 1.091 1.091 0 0 0-.84 0Zm6.12 8c-.15-.1 0-.5.16-.6.16-.1.44.28.25.47-.19.19-.25.22-.41.13Zm15.94 3.46c-.228.14-.469.258-.72.35 0 0-2.64-3.35-2.81-3.35-.17 0-.53.38-.5.47.9.975 1.745 2 2.53 3.07-.19.06-1.59.12-1.59.12a19.425 19.425 0 0 0-2-2c-.19 0-.66.53-.56.69.1.16 1.4 1.31 1.22 1.41a13.54 13.54 0 0 1-1.85.06s-.19-.78-.47-.81a2.82 2.82 0 0 0-.75.06s0 .72-.09.72a11.42 11.42 0 0 1-5.09-1.07 9.36 9.36 0 0 1-3.07-2.12s1.57-.75 1.19-1.59c-.38-.84-1-1.19-1.56-1.07-.56.12-1 1.72-1 1.72a12.227 12.227 0 0 1-3-2.94 10.737 10.737 0 0 1-1.69-2.81 1.31 1.31 0 0 0 .75-.4 2.16 2.16 0 0 0 .5-.72A9.5 9.5 0 0 0 22.36 52c4 1.18 7.31.87 10.19-1.16s5.66-7.06 4.62-11.5a10.41 10.41 0 0 0-7.37-7.5 15.18 15.18 0 0 0-9.5 1.84 18.322 18.322 0 0 0-3.84 4.13 9.083 9.083 0 0 1-1.47-.5c-.1-.09.78-5.28 2.9-7.38 2.12-2.1 7.11-6.5 14.63-5.03.18 0 .25 5.53 5.69 7.6a22 22 0 0 0 10.15 1.18c.44.874.737 1.812.88 2.78-.1.16-1.5.16-1.57.94-.07.78.47 1.53.85 1.5a5.994 5.994 0 0 0 1.15-.34l.16 1.22a8.36 8.36 0 0 0-7.62 3.28 31.56 31.56 0 0 0-4.63 9 13.04 13.04 0 0 0-.28 1.47s-1-1.69-1.25-1.6c-.25.09-.75.19-.59.41l2 2.88c.038.49.108.979.21 1.46.13.41.5 1.32.5 1.32s-3.09-4.66-3.31-4.57c-.22.09-.59.44-.56.6.03.16 3.22 4.31 3.06 4.43Zm-11.5-25.15c4-.55 8.69.84 9.44 7a9.27 9.27 0 0 1-6.59 10.28c-3 .88-8.6.06-10.54-4.31a9.468 9.468 0 0 1 7.69-12.97Zm23.41 13.4a4.73 4.73 0 0 1-.6 1.54s-1.68-1.94-1.9-1.88c-.22.06-.6.5-.47.69.13.19 2 1.62 1.91 1.84-.09.22-.41 1.06-.5 1-.09-.06-1.57-1.62-1.79-1.59-.22.03-.68.41-.56.59s2.13 1.63 1.88 2l-.38.53a13.264 13.264 0 0 0-1.78-1.72 1.3 1.3 0 0 0-.41.85c.07.15 1.57 1.53 1.47 1.65-.1.12-.22.47-.34.44-.12-.03-1.09-1.06-1.22-1-.13.06-.47.75-.31.91.16.16.87.66.87.81A11.92 11.92 0 0 1 43.61 55a9.108 9.108 0 0 1 1.06-7.1A14.12 14.12 0 0 1 48 44.12a5.363 5.363 0 0 1 1.72-.62 19.132 19.132 0 0 1-.45 3.21Zm.56-4.18a6.461 6.461 0 0 0-5.19 3.25A14.69 14.69 0 0 0 42 52.9c0 1 .5 3.06.31 3.19-.67.35-1.37.642-2.09.87a10.69 10.69 0 0 1 .62-8.68 14.22 14.22 0 0 1 6.66-6.63 15.338 15.338 0 0 1 2.37-.28l-.04 1.16ZM29.24 54.71c-.44.6-.94 1.72.47 2.22a1.34 1.34 0 0 0 1.78-1.75 1.38 1.38 0 0 0-2.25-.47Zm.76 1.46c-.55-.2-.36-.64-.18-.88a.55.55 0 0 1 .923.503.53.53 0 0 1-.743.377Zm-9-26.83c-.44.59-.94 1.72.47 2.22a1.34 1.34 0 0 0 1.78-1.75 1.38 1.38 0 0 0-2.25-.47Zm9.4-.6c-.34.46-.73 1.33.36 1.72a1 1 0 0 0 1.38-1.36 1.07 1.07 0 0 0-1.72-.36h-.02Zm8.21 6.88A1 1 0 0 0 40 34.26a1.07 1.07 0 0 0-1.75-.36c-.33.46-.71 1.33.38 1.72h-.02Zm-2 14.22A1 1 0 0 0 38 48.48a1.07 1.07 0 0 0-1.75-.36c-.33.46-.71 1.33.38 1.72h-.02Zm2.11-12.31c-.44.59-.94 1.72.47 2.22A1.34 1.34 0 0 0 41 38a1.37 1.37 0 0 0-2.26-.47h-.02Zm1.46.76a.53.53 0 0 1-.71.69c-.55-.19-.36-.64-.18-.88a.55.55 0 0 1 .91.19h-.02Zm5 1c.27-.95-.52-1.79-1.29-1.45-.77.34-1.62 1-.93 2 .69 1 1.95.4 2.22-.55Zm-1.18-.7c.3-.14.62.2.51.57-.11.37-.6.67-.88.24-.28-.43.08-.7.37-.81Zm2.77-2a1.071 1.071 0 0 0 .33-1.91c-.62-.32-1.78-.66-2.19.56-.41 1.22.91 1.76 1.82 1.39l.04-.04Zm-1.08-1.17c.16-.48.62-.35.87-.22.25.13.23.6-.13.76-.36.16-.94-.02-.78-.5l.04-.04Zm-18.4-17.83a3.38 3.38 0 0 0 5-3c-.17-1.75-2.18-3-4.21-2.54-2.03.46-3.79 3.95-.79 5.54Zm1.14-4.53a2.2 2.2 0 0 1 2.77 1.67 2.221 2.221 0 0 1-3.31 2c-1.98-1.07-.74-3.37.54-3.67Z" fill="#1D1D1B"/></svg>